<?xml version="1.0" encoding="UTF-8"?>
<!DOCTYPE svg PUBLIC "-//W3C//DTD SVG 1.1//EN" "http://www.w3.org/Graphics/SVG/1.1/DTD/svg11.dtd">
<svg xmlns="http://www.w3.org/2000/svg" version="1.1" width="2893px" height="2101px" style="shape-rendering:geometricPrecision; text-rendering:geometricPrecision; image-rendering:optimizeQuality; fill-rule:evenodd; clip-rule:evenodd" xmlns:xlink="http://www.w3.org/1999/xlink">
<g><path style="opacity:1" fill="#021318" d="M 1408.5,-0.5 C 1431.17,-0.5 1453.83,-0.5 1476.5,-0.5C 1652.41,19.6301 1813.75,78.7967 1960.5,177C 1988.86,197.179 2016.86,217.845 2044.5,239C 2150.86,328.304 2236.69,433.804 2302,555.5C 2325.95,602.703 2346.79,651.203 2364.5,701C 2481.83,700.661 2599.17,700.661 2716.5,701C 2764.13,700.208 2806.13,714.875 2842.5,745C 2850.47,752.792 2857.47,761.292 2863.5,770.5C 2863.43,772.027 2864.09,773.027 2865.5,773.5C 2865.43,775.027 2866.09,776.027 2867.5,776.5C 2881.61,798.829 2889.94,823.162 2892.5,849.5C 2892.5,1047.17 2892.5,1244.83 2892.5,1442.5C 2878.88,1513.29 2837.22,1558.46 2767.5,1578C 2757.3,1580.36 2746.97,1581.7 2736.5,1582C 2602.17,1582.17 2467.83,1582.67 2333.5,1583.5C 2251.77,1729.08 2140.77,1847.58 2000.5,1939C 1850.1,2034.97 1685.77,2088.8 1507.5,2100.5C 1479.5,2100.5 1451.5,2100.5 1423.5,2100.5C 1351.68,2095.94 1280.35,2087.27 1209.5,2074.5C 1207.49,2073.08 1205.15,2072.41 1202.5,2072.5C 1193.52,2070.94 1184.85,2068.61 1176.5,2065.5C 1174.49,2064.08 1172.15,2063.41 1169.5,2063.5C 1019.1,2019.83 885.1,1947.33 767.5,1846C 684.237,1770.16 614.737,1683.66 559,1586.5C 557.833,1585.33 556.667,1584.17 555.5,1583C 549.207,1582.03 542.874,1581.53 536.5,1581.5C 407.171,1582.65 277.837,1582.81 148.5,1582C 101.019,1579.68 62.8519,1559.85 34,1522.5C 13.5199,1495.56 2.0199,1465.22 -0.5,1431.5C -0.5,1236.83 -0.5,1042.17 -0.5,847.5C 0.495988,840.538 1.82932,833.538 3.5,826.5C 4.92381,824.485 5.59047,822.152 5.5,819.5C 12.747,791.991 26.4137,768.324 46.5,748.5C 49.0892,747.581 51.0892,745.914 52.5,743.5C 78.7854,718.773 110.119,704.94 146.5,702C 274.489,700.533 402.489,700.033 530.5,700.5C 550.578,639.339 576.412,580.673 608,524.5C 629.488,489.353 652.155,455.02 676,421.5C 737.13,343.37 806.63,273.537 884.5,212C 963.879,152.122 1050.21,103.788 1143.5,67C 1158.08,61.5302 1172.74,56.3635 1187.5,51.5C 1190.72,51.6545 1193.38,50.6545 1195.5,48.5C 1264.94,24.8821 1335.94,8.5488 1408.5,-0.5 Z"/></g>
<g><path style="opacity:1" fill="#566060" d="M 1195.5,48.5 C 1193.38,50.6545 1190.72,51.6545 1187.5,51.5C 1189.94,50.129 1192.6,49.129 1195.5,48.5 Z"/></g>
<g><path style="opacity:1" fill="#faf8f0" d="M 2231.5,624.5 C 2230.19,625.145 2229.19,626.145 2228.5,627.5C 2229.97,632.784 2232.47,637.45 2236,641.5C 2238.11,647.39 2239.94,653.39 2241.5,659.5C 2241.82,660.647 2242.48,661.481 2243.5,662C 2243.21,665.737 2243.04,669.57 2243,673.5C 2239.67,668.167 2236.33,662.833 2233,657.5C 2222.35,634.866 2210.69,612.866 2198,591.5C 2152.82,531.028 2104.65,472.862 2053.5,417C 2032.55,397.389 2011.55,377.723 1990.5,358C 1960.25,332.08 1928.59,308.08 1895.5,286C 1887.54,281.435 1879.37,277.268 1871,273.5C 1861.61,290.272 1854.45,307.938 1849.5,326.5C 1803.9,299.569 1755.9,277.736 1705.5,261C 1653.31,242.952 1599.97,229.619 1545.5,221C 1544.33,219.833 1543.17,218.667 1542,217.5C 1523.29,169.474 1488.13,146.308 1436.5,148C 1393.59,155.242 1364.09,179.075 1348,219.5C 1347.1,220.701 1345.93,221.535 1344.5,222C 1235.31,236.784 1133.31,271.951 1038.5,327.5C 1029.13,310.254 1021.96,291.92 1017,272.5C 988.521,290.883 960.355,310.383 932.5,331C 815.123,426.658 721.956,541.492 653,675.5C 648.99,683.531 645.49,691.865 642.5,700.5C 637.456,700.827 632.456,700.494 627.5,699.5C 653.683,630.312 687.85,565.645 730,505.5C 777.006,440.809 830.173,381.309 889.5,327C 984.923,243.417 1093.26,181.084 1214.5,140C 1280.37,116.282 1348.04,100.282 1417.5,92C 1466.22,90.0426 1514.22,95.0426 1561.5,107C 1773.75,156.146 1952.59,260.979 2098,421.5C 2151.47,483.059 2195.97,550.726 2231.5,624.5 Z"/></g>
<g><path style="opacity:1" fill="#ca7f4c" d="M 1435.5,228.5 C 1450.92,226.128 1462.09,231.795 1469,245.5C 1470.97,265.699 1461.81,276.699 1441.5,278.5C 1437.88,278.756 1434.54,277.923 1431.5,276C 1418.52,265.543 1416.02,253.043 1424,238.5C 1427.81,235.031 1431.65,231.698 1435.5,228.5 Z"/></g>
<g><path style="opacity:1" fill="#da9653" d="M 1038.5,327.5 C 961.8,374.169 894.467,432.169 836.5,501.5C 826.801,496.045 816.468,492.378 805.5,490.5C 798.318,491.826 792.151,495.159 787,500.5C 778.613,511.22 770.613,522.22 763,533.5C 745,562.833 727,592.167 709,621.5C 694.552,647.063 681.719,673.396 670.5,700.5C 661.167,700.5 651.833,700.5 642.5,700.5C 645.49,691.865 648.99,683.531 653,675.5C 721.956,541.492 815.123,426.658 932.5,331C 960.355,310.383 988.521,290.883 1017,272.5C 1021.96,291.92 1029.13,310.254 1038.5,327.5 Z"/></g>
<g><path style="opacity:1" fill="#db9456" d="M 2231.5,624.5 C 2244.24,649.363 2255.24,675.03 2264.5,701.5C 2250.17,701.5 2235.83,701.5 2221.5,701.5C 2199.22,640.916 2167.72,585.916 2127,536.5C 2114.67,522.5 2102.33,508.5 2090,494.5C 2077.12,480.081 2061.95,469.081 2044.5,461.5C 2040.55,461.641 2037.22,463.141 2034.5,466C 2032.39,467.264 2031.39,469.097 2031.5,471.5C 1977.77,414.07 1917.11,365.737 1849.5,326.5C 1854.45,307.938 1861.61,290.272 1871,273.5C 1879.37,277.268 1887.54,281.435 1895.5,286C 1928.59,308.08 1960.25,332.08 1990.5,358C 2011.55,377.723 2032.55,397.389 2053.5,417C 2104.65,472.862 2152.82,531.028 2198,591.5C 2210.69,612.866 2222.35,634.866 2233,657.5C 2236.33,662.833 2239.67,668.167 2243,673.5C 2243.04,669.57 2243.21,665.737 2243.5,662C 2242.48,661.481 2241.82,660.647 2241.5,659.5C 2239.94,653.39 2238.11,647.39 2236,641.5C 2232.47,637.45 2229.97,632.784 2228.5,627.5C 2229.19,626.145 2230.19,625.145 2231.5,624.5 Z"/></g>
<g><path style="opacity:1" fill="#39221a" d="M 1194.5,418.5 C 1174.14,418.227 1153.81,418.56 1133.5,419.5C 1134.61,418.71 1135.94,418.21 1137.5,418C 1156.67,417.171 1175.67,417.338 1194.5,418.5 Z"/></g>
<g><path style="opacity:1" fill="#642f1c" d="M 1723.5,417.5 C 1711.7,418.958 1699.7,419.624 1687.5,419.5C 1687.5,419.167 1687.5,418.833 1687.5,418.5C 1699.5,418.167 1711.5,417.833 1723.5,417.5 Z"/></g>
<g><path style="opacity:1" fill="#933c1e" d="M 1723.5,417.5 C 1739.5,416.288 1755.17,417.788 1770.5,422C 1789.94,431.256 1809.61,439.922 1829.5,448C 1835.9,451.528 1842.23,455.028 1848.5,458.5C 1841.84,459.038 1835.18,459.871 1828.5,461C 1835.49,461.5 1842.49,461.666 1849.5,461.5C 1851.1,461.232 1852.43,461.566 1853.5,462.5C 1582.83,462.333 1312.17,462.5 1041.5,463C 1040.26,463.232 1039.26,463.732 1038.5,464.5C 1038.17,464.5 1037.83,464.5 1037.5,464.5C 1037.51,462.983 1038.18,461.816 1039.5,461C 1057.32,449.497 1075.99,439.497 1095.5,431C 1107.95,426.264 1120.62,422.431 1133.5,419.5C 1153.81,418.56 1174.14,418.227 1194.5,418.5C 1198.17,418.5 1201.83,418.5 1205.5,418.5C 1210.32,419.326 1215.32,419.826 1220.5,420C 1376.33,420.833 1532,420.666 1687.5,419.5C 1699.7,419.624 1711.7,418.958 1723.5,417.5 Z"/></g>
<g><path style="opacity:1" fill="#592c1b" d="M 1205.5,418.5 C 1366.17,419.819 1526.83,419.819 1687.5,418.5C 1687.5,418.833 1687.5,419.167 1687.5,419.5C 1532,420.666 1376.33,420.833 1220.5,420C 1215.32,419.826 1210.32,419.326 1205.5,418.5 Z"/></g>
<g><path style="opacity:1" fill="#67301c" d="M 1848.5,458.5 C 1849.4,459.209 1849.74,460.209 1849.5,461.5C 1842.49,461.666 1835.49,461.5 1828.5,461C 1835.18,459.871 1841.84,459.038 1848.5,458.5 Z"/></g>
<g><path style="opacity:1" fill="#9c4220" d="M 2221.5,701.5 C 2209.81,701.832 2198.15,701.499 2186.5,700.5C 2165.72,656.255 2141.89,613.922 2115,573.5C 2088.47,538.464 2060.63,504.464 2031.5,471.5C 2031.39,469.097 2032.39,467.264 2034.5,466C 2037.22,463.141 2040.55,461.641 2044.5,461.5C 2061.95,469.081 2077.12,480.081 2090,494.5C 2102.33,508.5 2114.67,522.5 2127,536.5C 2167.72,585.916 2199.22,640.916 2221.5,701.5 Z"/></g>
<g><path style="opacity:1" fill="#aa572f" d="M 1853.5,462.5 C 1853.5,462.833 1853.5,463.167 1853.5,463.5C 1581.82,463.171 1310.15,463.504 1038.5,464.5C 1039.26,463.732 1040.26,463.232 1041.5,463C 1312.17,462.5 1582.83,462.333 1853.5,462.5 Z"/></g>
<g><path style="opacity:1" fill="#de9459" d="M 1853.5,463.5 C 1856.64,464.207 1859.64,465.373 1862.5,467C 1874.96,475.643 1887.63,483.976 1900.5,492C 1907.58,499.088 1915.25,505.422 1923.5,511C 1925.31,513.644 1927.31,516.144 1929.5,518.5C 1916.91,520.291 1904.24,520.957 1891.5,520.5C 1580.83,520.819 1270.16,520.486 959.5,519.5C 961.25,516.244 963.583,513.411 966.5,511C 969.018,509.498 971.518,507.998 974,506.5C 976.013,503.042 978.513,499.876 981.5,497C 999.225,484.587 1017.89,473.754 1037.5,464.5C 1037.83,464.5 1038.17,464.5 1038.5,464.5C 1310.15,463.504 1581.82,463.171 1853.5,463.5 Z"/></g>
<g><path style="opacity:1" fill="#97421d" d="M 836.5,501.5 C 827.945,513.949 818.445,525.616 808,536.5C 804.7,544.798 799.034,550.798 791,554.5C 788.726,558.714 786.726,563.047 785,567.5C 769.313,589.221 754.313,611.555 740,634.5C 728.705,655.757 717.871,677.424 707.5,699.5C 695.185,700.499 682.851,700.832 670.5,700.5C 681.719,673.396 694.552,647.063 709,621.5C 727,592.167 745,562.833 763,533.5C 770.613,522.22 778.613,511.22 787,500.5C 792.151,495.159 798.318,491.826 805.5,490.5C 816.468,492.378 826.801,496.045 836.5,501.5 Z"/></g>
<g><path style="opacity:1" fill="#3c3529" d="M 959.5,519.5 C 1270.16,520.486 1580.83,520.819 1891.5,520.5C 1739.17,521.167 1586.67,521.5 1434,521.5C 1281.5,521.333 1129,521.167 976.5,521C 970.652,520.827 964.985,520.327 959.5,519.5 Z"/></g>
<g><path style="opacity:1" fill="#2e201a" d="M 881.5,613.5 C 1050,612.833 1218.67,612.5 1387.5,612.5C 1556.17,612.667 1724.83,612.833 1893.5,613C 1934.67,613.167 1975.67,613.667 2016.5,614.5C 1638.17,613.922 1259.83,613.589 881.5,613.5 Z"/></g>
<g><path style="opacity:1" fill="#8f3d1f" d="M 879.5,614.5 C 1259.17,614.83 1638.83,615.163 2018.5,615.5C 2021.77,615.884 2024.6,617.218 2027,619.5C 2037,632.175 2046.5,645.175 2055.5,658.5C 1650.17,658.76 1244.83,658.427 839.5,657.5C 846.423,647.397 853.59,637.397 861,627.5C 865.167,624.667 868.667,621.167 871.5,617C 874.096,615.864 876.763,615.031 879.5,614.5 Z"/></g>
<g><path style="opacity:1" fill="#79361e" d="M 879.5,614.5 C 879.842,613.662 880.508,613.328 881.5,613.5C 1259.83,613.589 1638.17,613.922 2016.5,614.5C 2017.49,614.328 2018.16,614.662 2018.5,615.5C 1638.83,615.163 1259.17,614.83 879.5,614.5 Z"/></g>
<g><path style="opacity:1" fill="#e99e60" d="M 839.5,657.5 C 1244.83,658.427 1650.17,658.76 2055.5,658.5C 2065.22,669.589 2073.72,681.589 2081,694.5C 2083.77,700.102 2082.94,704.935 2078.5,709C 1659.5,709.667 1240.5,709.667 821.5,709C 819.564,708.187 817.564,707.687 815.5,707.5C 814.537,703.204 814.371,698.871 815,694.5C 821.852,681.176 830.019,668.843 839.5,657.5 Z"/></g>
<g><path style="opacity:1" fill="#606a69" d="M 52.5,743.5 C 51.0892,745.914 49.0892,747.581 46.5,748.5C 47.9108,746.086 49.9108,744.419 52.5,743.5 Z"/></g>
<g><path style="opacity:1" fill="#767d7b" d="M 2863.5,770.5 C 2864.91,770.973 2865.57,771.973 2865.5,773.5C 2864.09,773.027 2863.43,772.027 2863.5,770.5 Z"/></g>
<g><path style="opacity:1" fill="#757d7b" d="M 2865.5,773.5 C 2866.91,773.973 2867.57,774.973 2867.5,776.5C 2866.09,776.027 2865.43,775.027 2865.5,773.5 Z"/></g>
<g><path style="opacity:1" fill="#faf7ed" d="M 1242.5,808.5 C 1286.7,804.293 1326.36,815.46 1361.5,842C 1367.55,847.26 1371.72,853.76 1374,861.5C 1375.38,887.327 1374.05,912.993 1370,938.5C 1357.65,953.289 1341.82,959.456 1322.5,957C 1306.98,949.742 1291.32,942.742 1275.5,936C 1256.16,929.201 1238.5,932.201 1222.5,945C 1206.82,958.518 1196.32,975.352 1191,995.5C 1185.37,1017.46 1182.37,1039.79 1182,1062.5C 1181.17,1103.84 1181.5,1145.18 1183,1186.5C 1185.79,1202.54 1190.79,1217.87 1198,1232.5C 1205.79,1253 1220.62,1264.83 1242.5,1268C 1255.42,1269.57 1267.92,1268.07 1280,1263.5C 1280.92,1260.9 1281.59,1258.23 1282,1255.5C 1282.5,1239.5 1282.67,1223.5 1282.5,1207.5C 1268.07,1207.86 1255.91,1202.86 1246,1192.5C 1244.39,1189.62 1243.06,1186.62 1242,1183.5C 1240.39,1161.88 1240.06,1140.21 1241,1118.5C 1244.05,1101.12 1254.21,1090.62 1271.5,1087C 1302.45,1084.57 1333.45,1083.9 1364.5,1085C 1378.47,1088.97 1386.97,1098.14 1390,1112.5C 1390.22,1188.83 1389.89,1265.17 1389,1341.5C 1388.86,1368.63 1375.7,1385.46 1349.5,1392C 1336.34,1394.98 1323.01,1396.65 1309.5,1397C 1270.16,1401.05 1231.83,1396.72 1194.5,1384C 1151.94,1366.11 1119.44,1336.94 1097,1296.5C 1074.05,1253.37 1061.38,1207.37 1059,1158.5C 1058.33,1125.17 1058.33,1091.83 1059,1058.5C 1060.62,1005.02 1073.95,954.688 1099,907.5C 1117.03,876.135 1141.2,850.635 1171.5,831C 1193.68,818.379 1217.35,810.879 1242.5,808.5 Z"/></g>
<g><path style="opacity:1" fill="#faf7ed" d="M 1583.5,809.5 C 1640.76,805.725 1687.26,826.058 1723,870.5C 1738.8,890.433 1750.13,912.766 1757,937.5C 1766.08,972.936 1771.08,1008.94 1772,1045.5C 1772.91,1044.67 1773.58,1043.67 1774,1042.5C 1773.06,990.274 1784.39,940.94 1808,894.5C 1843.25,834.784 1895.75,806.95 1965.5,811C 1998.27,815.722 2026.94,829.055 2051.5,851C 2074.59,871.451 2091.42,896.284 2102,925.5C 2112.5,955.317 2119.16,985.984 2122,1017.5C 2123.11,1045.31 2123.61,1073.15 2123.5,1101C 2126.17,1149.66 2122.67,1197.83 2113,1245.5C 2102.39,1290.58 2080.55,1329.08 2047.5,1361C 1998.7,1399.88 1945.03,1408.21 1886.5,1386C 1845.01,1366.18 1815.51,1335.01 1798,1292.5C 1791.05,1274.99 1785.72,1256.99 1782,1238.5C 1778.18,1214.61 1775.35,1190.61 1773.5,1166.5C 1772.5,1166.5 1771.5,1166.5 1770.5,1166.5C 1773.14,1225.29 1758.64,1279.29 1727,1328.5C 1688.93,1382.27 1637.1,1404.44 1571.5,1395C 1528.57,1386.05 1494.74,1363.55 1470,1327.5C 1445.53,1290.86 1430.86,1250.53 1426,1206.5C 1424.76,1195.52 1423.76,1184.52 1423,1173.5C 1421.45,1128.18 1421.12,1082.85 1422,1037.5C 1423.18,985.432 1436.52,936.766 1462,891.5C 1489.63,845.1 1530.13,817.767 1583.5,809.5 Z"/></g>
<g><path style="opacity:1" fill="#faf8ee" d="M 2670.5,809.5 C 2696.65,807.875 2721.32,813.042 2744.5,825C 2755.01,831.172 2762.18,840.006 2766,851.5C 2766.67,883.167 2766.67,914.833 2766,946.5C 2763.92,954.06 2758.92,958.393 2751,959.5C 2747.34,958.42 2743.84,956.92 2740.5,955C 2729.32,945.163 2716.65,937.83 2702.5,933C 2688.4,930.671 2674.4,931.004 2660.5,934C 2642.17,941.436 2631.01,954.936 2627,974.5C 2625.72,996.667 2631.72,1016.67 2645,1034.5C 2648.58,1038.65 2651.91,1042.99 2655,1047.5C 2687.87,1082.03 2718.87,1118.03 2748,1155.5C 2766.99,1181.82 2780.32,1210.82 2788,1242.5C 2796.99,1290.23 2790.32,1335.56 2768,1378.5C 2755.74,1397.51 2741.24,1414.68 2724.5,1430C 2695.99,1450.73 2663.99,1461.73 2628.5,1463C 2608.64,1464.43 2588.97,1463.1 2569.5,1459C 2555.06,1455.86 2541.72,1450.19 2529.5,1442C 2523.33,1437.51 2519.17,1431.68 2517,1424.5C 2516.83,1409.33 2516.67,1394.17 2516.5,1379C 2516.36,1362.77 2516.86,1346.6 2518,1330.5C 2520.79,1325.38 2524.62,1321.21 2529.5,1318C 2537.4,1313.64 2545.4,1313.64 2553.5,1318C 2569.06,1326.61 2585.39,1333.28 2602.5,1338C 2627.42,1343.11 2647.92,1335.94 2664,1316.5C 2672.64,1296.19 2672.64,1275.86 2664,1255.5C 2659.09,1245.34 2653.42,1235.67 2647,1226.5C 2636.38,1212.88 2625.38,1199.54 2614,1186.5C 2596.63,1168.13 2579.63,1149.47 2563,1130.5C 2543.44,1107.24 2528.44,1081.24 2518,1052.5C 2508.54,1022.46 2505.88,991.789 2510,960.5C 2518.83,907.721 2545.33,866.555 2589.5,837C 2614.69,822.104 2641.69,812.937 2670.5,809.5 Z"/></g>
<g><path style="opacity:1" fill="#f9f8ed" d="M 808.5,821.5 C 830.503,821.333 852.503,821.5 874.5,822C 886.927,828.676 892.76,839.176 892,853.5C 892.333,990.167 892.667,1126.83 893,1263.5C 894.375,1270.87 898.875,1274.7 906.5,1275C 915.528,1275.61 924.528,1275.27 933.5,1274C 948.238,1270.98 962.905,1267.65 977.5,1264C 998.012,1261.17 1012.85,1269.01 1022,1287.5C 1022.92,1290.1 1023.59,1292.77 1024,1295.5C 1024.67,1318.5 1024.67,1341.5 1024,1364.5C 1021.09,1381.19 1011.59,1392.03 995.5,1397C 986.939,1398.99 978.272,1400.32 969.5,1401C 909.488,1406 849.488,1410.67 789.5,1415C 778.228,1409.31 771.728,1400.15 770,1387.5C 769.333,1211.17 769.333,1034.83 770,858.5C 770,842.296 777.5,831.463 792.5,826C 797.874,824.16 803.207,822.66 808.5,821.5 Z"/></g>
<g><path style="opacity:1" fill="#faf7ed" d="M 2176.5,823.5 C 2205.17,823.333 2233.84,823.5 2262.5,824C 2350.8,826.541 2417.96,865.041 2464,939.5C 2477.5,963.658 2486.83,989.325 2492,1016.5C 2499.57,1050.92 2502.73,1085.76 2501.5,1121C 2502.99,1171.55 2493.83,1220.05 2474,1266.5C 2437.07,1344.4 2376.24,1392.23 2291.5,1410C 2249.92,1418.49 2207.92,1422.49 2165.5,1422C 2159,1419.5 2154.5,1415 2152,1408.5C 2150.38,1404.65 2149.38,1400.65 2149,1396.5C 2148.33,1214.83 2148.33,1033.17 2149,851.5C 2149.68,842.31 2153.85,835.144 2161.5,830C 2166.37,827.226 2171.37,825.059 2176.5,823.5 Z"/></g>
<g><path style="opacity:1" fill="#626a69" d="M 5.5,819.5 C 5.59047,822.152 4.92381,824.485 3.5,826.5C 3.40953,823.848 4.07619,821.515 5.5,819.5 Z"/></g>
<g><path style="opacity:1" fill="#faf8ec" d="M 519.5,825.5 C 543.169,825.333 566.836,825.5 590.5,826C 598.389,828.258 603.222,833.425 605,841.5C 606.164,991.159 606.997,1140.83 607.5,1290.5C 626.881,1293.39 646.215,1292.89 665.5,1289C 677.397,1285.64 689.397,1282.81 701.5,1280.5C 719.235,1280.93 730.401,1289.59 735,1306.5C 735.667,1332.83 735.667,1359.17 735,1385.5C 733.221,1400.6 725.388,1411.1 711.5,1417C 705.557,1418.59 699.557,1419.92 693.5,1421C 636.48,1426.2 579.48,1431.53 522.5,1437C 514.833,1437.67 507.167,1437.67 499.5,1437C 492.268,1434.1 487.435,1428.93 485,1421.5C 483.341,1234.86 483.007,1048.2 484,861.5C 484.51,845.681 492.01,834.848 506.5,829C 510.919,827.648 515.252,826.481 519.5,825.5 Z"/></g>
<g><path style="opacity:1" fill="#faf8ed" d="M 211.5,829.5 C 260.501,829.333 309.501,829.5 358.5,830C 361.562,831.061 364.062,832.894 366,835.5C 373.372,846.3 377.372,858.3 378,871.5C 401.75,1039.17 425.417,1206.84 449,1374.5C 449.667,1386.17 449.667,1397.83 449,1409.5C 443.024,1430.12 429.191,1441.29 407.5,1443C 387.53,1445.66 367.53,1447.66 347.5,1449C 336.997,1443.81 331.164,1435.31 330,1423.5C 325.557,1372.96 319.557,1322.63 312,1272.5C 291.165,1271.35 270.331,1272.19 249.5,1275C 244.023,1276.6 238.689,1278.6 233.5,1281C 229.106,1287.51 226.273,1294.68 225,1302.5C 219.704,1342.24 214.038,1381.9 208,1421.5C 203.577,1438.59 192.744,1448.76 175.5,1452C 151.872,1454.89 128.205,1457.39 104.5,1459.5C 96.9728,1458.14 91.1394,1454.14 87,1447.5C 85.4325,1439.58 85.0991,1431.58 86,1423.5C 88.7935,1410.53 91.4602,1397.53 94,1384.5C 123.234,1213.1 152.9,1041.77 183,870.5C 184.464,856.403 190.297,844.57 200.5,835C 203.99,832.588 207.657,830.755 211.5,829.5 Z"/></g>
<g><path style="opacity:1" fill="#011318" d="M 1588.5,939.5 C 1618.52,937.414 1637.69,950.748 1646,979.5C 1646.57,983.848 1647.24,988.181 1648,992.5C 1648.67,1065.5 1648.67,1138.5 1648,1211.5C 1647.6,1230.78 1640.77,1247.28 1627.5,1261C 1603.83,1275.63 1582,1273.47 1562,1254.5C 1553.26,1242.61 1548.26,1229.27 1547,1214.5C 1546.33,1141.17 1546.33,1067.83 1547,994.5C 1548.43,979.53 1553.76,966.197 1563,954.5C 1570.59,947.794 1579.09,942.794 1588.5,939.5 Z"/></g>
<g><path style="opacity:1" fill="#021318" d="M 1940.5,939.5 C 1965.46,938.058 1982.96,948.725 1993,971.5C 1995.43,978.316 1997.1,985.316 1998,992.5C 1998.67,1064.83 1998.67,1137.17 1998,1209.5C 1999.02,1230.45 1991.86,1247.95 1976.5,1262C 1952.51,1275.71 1930.67,1272.87 1911,1253.5C 1903.92,1241.85 1899.92,1229.18 1899,1215.5C 1898.03,1138.81 1898.36,1062.15 1900,985.5C 1904.28,961.741 1917.78,946.408 1940.5,939.5 Z"/></g>
<g><path style="opacity:1" fill="#021218" d="M 2258.5,954.5 C 2322.94,951.437 2362.11,981.437 2376,1044.5C 2384.23,1088.12 2384.56,1131.78 2377,1175.5C 2369.86,1208.95 2354.03,1237.45 2329.5,1261C 2309.79,1276.52 2287.45,1286.02 2262.5,1289.5C 2264.57,1279.27 2266.07,1268.93 2267,1258.5C 2268.41,1173.5 2268.74,1088.5 2268,1003.5C 2266.16,987.945 2262.66,972.778 2257.5,958C 2257.65,956.744 2257.98,955.577 2258.5,954.5 Z"/></g>
<g><path style="opacity:1" fill="#09151c" d="M 275.5,967.5 C 277.48,968.848 278.647,970.848 279,973.5C 284.224,1019.18 289.558,1064.85 295,1110.5C 295.667,1116.17 295.667,1121.83 295,1127.5C 291.55,1128.38 288.05,1129.22 284.5,1130C 273.404,1130.48 262.404,1131.64 251.5,1133.5C 251.167,1132.5 250.833,1131.5 250.5,1130.5C 256.246,1093.11 262.413,1055.78 269,1018.5C 271.741,1001.57 273.908,984.568 275.5,967.5 Z"/></g>
<g><path style="opacity:1" fill="#db9456" d="M 645.5,1544.5 C 666.849,1545.01 688.183,1545.84 709.5,1547C 746.202,1600.39 786.702,1650.89 831,1698.5C 969.636,1835.07 1135.8,1917.9 1329.5,1947C 1551.2,1974.07 1754.54,1925.74 1939.5,1802C 2001.53,1757.32 2058.03,1706.15 2109,1648.5C 2136.37,1615.8 2162.2,1581.97 2186.5,1547C 2206.82,1545.68 2227.15,1545.35 2247.5,1546C 2243.53,1557.1 2238.37,1567.6 2232,1577.5C 2187.22,1646.09 2135.39,1709.26 2076.5,1767C 1918.88,1907.09 1734.21,1987.42 1522.5,2008C 1401.32,2017.98 1282.99,2004.32 1167.5,1967C 1043.41,1926.65 932.077,1864.65 833.5,1781C 800.935,1751.77 770.435,1720.6 742,1687.5C 712.732,1651.23 685.398,1613.57 660,1574.5C 654.348,1564.86 649.515,1554.86 645.5,1544.5 Z"/></g>
<g><path style="opacity:1" fill="#e99e60" d="M 2033.5,1608.5 C 1642.85,1607.26 1252.18,1607.26 861.5,1608.5C 858.628,1607.47 856.128,1605.81 854,1603.5C 844.333,1591.5 834.667,1579.5 825,1567.5C 824.506,1565.87 824.34,1564.2 824.5,1562.5C 1241.17,1562.33 1657.83,1562.5 2074.5,1563C 2071.96,1565.91 2069.8,1569.07 2068,1572.5C 2060.63,1580.2 2053.63,1588.2 2047,1596.5C 2042.93,1601.08 2038.43,1605.08 2033.5,1608.5 Z"/></g>
<g><path style="opacity:1" fill="#8e3d1f" d="M 2033.5,1608.5 C 2024.05,1621.44 2012.72,1632.61 1999.5,1642C 1996.33,1643.72 1992.99,1645.06 1989.5,1646C 1791.5,1647.1 1593.5,1647.6 1395.5,1647.5C 1230.17,1647.33 1064.83,1647.17 899.5,1647C 896.827,1646 894.493,1644.5 892.5,1642.5C 885.844,1635.01 878.677,1628.01 871,1621.5C 867.204,1617.55 864.037,1613.22 861.5,1608.5C 1252.18,1607.26 1642.85,1607.26 2033.5,1608.5 Z"/></g>
<g><path style="opacity:1" fill="#df9459" d="M 1813.5,1781.5 C 1570.79,1781.83 1328.13,1781.5 1085.5,1780.5C 1082.76,1779.97 1080.1,1779.14 1077.5,1778C 1053.31,1764.96 1030.65,1749.79 1009.5,1732.5C 1013.33,1732.17 1017.17,1731.83 1021,1731.5C 1307.16,1730.34 1593.33,1730.18 1879.5,1731C 1882.17,1731.33 1884.83,1731.67 1887.5,1732C 1884.55,1737.29 1880.55,1741.62 1875.5,1745C 1856.66,1755.58 1838.33,1766.91 1820.5,1779C 1818.26,1780.14 1815.92,1780.97 1813.5,1781.5 Z"/></g>
<g><path style="opacity:1" fill="#933d1e" d="M 1085.5,1780.5 C 1328.13,1781.5 1570.79,1781.83 1813.5,1781.5C 1809.8,1783.09 1805.8,1783.92 1801.5,1784C 1804.17,1784.33 1806.83,1784.67 1809.5,1785C 1808.5,1786 1807.5,1787 1806.5,1788C 1780.06,1801.55 1752.73,1812.89 1724.5,1822C 1702.82,1822.53 1681.16,1822.19 1659.5,1821C 1498.16,1820.48 1336.83,1820.48 1175.5,1821C 1157.7,1818.29 1140.7,1812.96 1124.5,1805C 1112.88,1799.19 1101.54,1792.85 1090.5,1786C 1087.92,1784.92 1086.25,1783.09 1085.5,1780.5 Z"/></g>
<g><path style="opacity:1" fill="#a6442b" d="M 1307.5,1887.5 C 1404.51,1887.18 1501.51,1887.52 1598.5,1888.5C 1598.33,1893.67 1596,1897.51 1591.5,1900C 1574.69,1907.62 1557.02,1911.62 1538.5,1912C 1475.83,1912.67 1413.17,1912.67 1350.5,1912C 1333.67,1911.16 1319.17,1905 1307,1893.5C 1306.32,1891.4 1306.49,1889.4 1307.5,1887.5 Z"/></g>
<g><path style="opacity:1" fill="#535d5d" d="M 1169.5,2063.5 C 1172.15,2063.41 1174.49,2064.08 1176.5,2065.5C 1173.85,2065.59 1171.51,2064.92 1169.5,2063.5 Z"/></g>
<g><path style="opacity:1" fill="#505959" d="M 1202.5,2072.5 C 1205.15,2072.41 1207.49,2073.08 1209.5,2074.5C 1206.85,2074.59 1204.51,2073.92 1202.5,2072.5 Z"/></g>
</svg>
